<?xml version="1.0" encoding="UTF-8" standalone="no"?>
<svg
   xmlns:dc="http://purl.org/dc/elements/1.1/"
   xmlns:cc="http://creativecommons.org/ns#"
   xmlns:rdf="http://www.w3.org/1999/02/22-rdf-syntax-ns#"
   xmlns:svg="http://www.w3.org/2000/svg"
   xmlns="http://www.w3.org/2000/svg"
   viewBox="0 0 575 575"
   height="575"
   width="575"
   xml:space="preserve"
   version="1.1"
   id="svg2"><metadata
     id="metadata8"><rdf:RDF><cc:Work
         rdf:about=""><dc:format>image/svg+xml</dc:format><dc:type
           rdf:resource="http://purl.org/dc/dcmitype/StillImage" /></cc:Work></rdf:RDF></metadata><defs
     id="defs6"><clipPath
       id="clipPath18"
       clipPathUnits="userSpaceOnUse"><path
         id="path20"
         d="m 285.784,197.623 -7.113,-19.768 2.857,0 1.96,5.684 7.449,0 1.987,-5.684 2.884,0 -7.111,19.768 -2.913,0 z m 0.644,-5.516 c 0.336,1.008 0.784,2.8 0.784,2.8 l 0,0 0.056,0 c 0,0 0.421,-1.792 0.756,-2.8 l 0,0 2.184,-6.272 -5.993,0 2.213,6.272 z" /></clipPath><linearGradient
       id="linearGradient26"
       spreadMethod="pad"
       gradientTransform="matrix(17.136719,0,0,-17.136719,278.67187,187.73877)"
       gradientUnits="userSpaceOnUse"
       y2="0"
       x2="1"
       y1="0"
       x1="0"><stop
         id="stop28"
         offset="0"
         style="stop-opacity:1;stop-color:#68551f" /><stop
         id="stop30"
         offset="1"
         style="stop-opacity:1;stop-color:#af9358" /></linearGradient><clipPath
       id="clipPath38"
       clipPathUnits="userSpaceOnUse"><path
         id="path40"
         d="m 300.82,197.623 0,-19.768 2.772,0 0,7.868 4.227,0 4.173,-7.868 3.136,0 -4.201,7.672 c -0.363,0.644 -0.587,0.896 -0.587,0.896 l 0,0 0,0.056 c 2.156,0.7 3.556,2.828 3.556,5.348 l 0,0 c 0,2.605 -1.316,4.592 -3.332,5.349 l 0,0 c -0.756,0.279 -1.625,0.447 -3.696,0.447 l 0,0 -6.048,0 z m 2.772,-2.408 3.192,0 c 1.54,0 2.184,-0.168 2.716,-0.448 l 0,0 c 1.008,-0.561 1.567,-1.596 1.567,-3.052 l 0,0 c 0,-2.212 -1.344,-3.583 -3.499,-3.583 l 0,0 -3.976,0 0,7.083 z" /></clipPath><linearGradient
       id="linearGradient46"
       spreadMethod="pad"
       gradientTransform="matrix(14.308594,0,0,-14.308594,300.81934,187.73877)"
       gradientUnits="userSpaceOnUse"
       y2="0"
       x2="1"
       y1="0"
       x1="0"><stop
         id="stop48"
         offset="0"
         style="stop-opacity:1;stop-color:#af9358" /><stop
         id="stop50"
         offset="1"
         style="stop-opacity:1;stop-color:#68551f" /></linearGradient><clipPath
       id="clipPath58"
       clipPathUnits="userSpaceOnUse"><path
         id="path60"
         d="m 318.319,197.623 0,-2.408 6.776,0 0,-17.36 2.772,0 0,17.36 6.776,0 0,2.408 -16.324,0 z" /></clipPath><linearGradient
       id="linearGradient66"
       spreadMethod="pad"
       gradientTransform="matrix(16.324219,0,0,-16.324219,318.31934,187.73877)"
       gradientUnits="userSpaceOnUse"
       y2="0"
       x2="1"
       y1="0"
       x1="0"><stop
         id="stop68"
         offset="0"
         style="stop-opacity:1;stop-color:#68551f" /><stop
         id="stop70"
         offset="1"
         style="stop-opacity:1;stop-color:#af9358" /></linearGradient><clipPath
       id="clipPath78"
       clipPathUnits="userSpaceOnUse"><path
         id="path80"
         d="m 338.507,192.442 c 0,-6.075 9.576,-5.151 9.576,-9.435 l 0,0 c 0,-1.876 -1.569,-2.912 -3.416,-2.912 l 0,0 c -2.941,0 -5.04,2.128 -5.04,2.128 l 0,0 -1.568,-2.101 c 0,0 2.352,-2.603 6.551,-2.603 l 0,0 c 3.92,0 6.273,2.52 6.273,5.572 l 0,0 c 0,6.412 -9.576,5.319 -9.576,9.407 l 0,0 c 0,1.569 1.484,2.886 3.584,2.886 l 0,0 c 2.52,0 4.34,-1.709 4.34,-1.709 l 0,0 1.26,2.296 c 0,0 -1.933,1.988 -5.6,1.988 l 0,0 c -3.724,0 -6.384,-2.436 -6.384,-5.517" /></clipPath><linearGradient
       id="linearGradient86"
       spreadMethod="pad"
       gradientTransform="matrix(12.824219,0,0,-12.824219,338.05859,187.73877)"
       gradientUnits="userSpaceOnUse"
       y2="0"
       x2="1"
       y1="0"
       x1="0"><stop
         id="stop88"
         offset="0"
         style="stop-opacity:1;stop-color:#af9358" /><stop
         id="stop90"
         offset="1"
         style="stop-opacity:1;stop-color:#68551f" /></linearGradient><clipPath
       id="clipPath98"
       clipPathUnits="userSpaceOnUse"><path
         id="path100"
         d="m 213.379,314.349 c -12.252,-11.33 -14.717,-31.682 -16.674,-47.243 l 0,0 c -2.275,-18.087 -2.013,-36.599 -5.453,-54.522 l 0,0 c -5.969,-31.106 -11.115,-69.143 -39.193,-88.735 l 0,0 c -7.168,-5.002 -16.194,-7.142 -24.328,-3.297 l 0,0 c -6.867,3.247 -11.249,10.246 -13.143,17.366 l 0,0 c -1.637,6.142 -2.217,13.154 -0.541,19.325 l 0,0 c 2.703,9.944 16.885,12.376 19.634,1.241 l 0,0 c 0.62,-2.504 4.477,-1.441 3.858,1.063 l 0,0 c -2.195,8.894 -10.789,13.187 -19.205,8.788 l 0,0 c -8.002,-4.182 -9.606,-13.064 -9.144,-21.37 l 0,0 c 0.939,-16.858 11.739,-34.528 30.791,-32.223 l 0,0 c 11.304,1.367 20.898,9.965 27.828,18.42 l 0,0 c 6.857,8.372 11.548,18.304 15.3,28.385 l 0,0 c 6.697,17.996 10.533,37.749 13.11,56.762 l 0,0 c 2.083,15.383 2.455,30.962 4.199,46.388 l 0,0 c 1.691,14.961 3.923,33.026 14.021,44.968 l 0,0 c 1.891,2.236 4.172,4.027 6.739,5.419 l 0,0 c 1.203,0.652 1.035,0.779 2.181,-0.428 l 0,0 c 0.95,-0.996 1.393,-2.453 1.754,-3.74 l 0,0 c 1.828,-6.493 0.217,-14.161 -1.074,-20.589 l 0,0 c -2.779,-13.843 -7.545,-27.369 -12.744,-40.472 l 0,0 c -0.952,-2.4 2.918,-3.431 3.857,-1.063 l 0,0 c 6.108,15.394 11.784,31.479 14.014,47.949 l 0,0 c 0.848,6.249 1.484,13.734 -1.938,19.379 l 0,0 c -1.43,2.359 -3.128,3.256 -4.91,3.256 l 0,0 c -3.04,0 -6.323,-2.608 -8.939,-5.027" /></clipPath><linearGradient
       id="linearGradient106"
       spreadMethod="pad"
       gradientTransform="matrix(120.71973,0,0,-120.71973,109.11719,216.95703)"
       gradientUnits="userSpaceOnUse"
       y2="0"
       x2="1"
       y1="0"
       x1="0"><stop
         id="stop108"
         offset="0"
         style="stop-opacity:1;stop-color:#68551f" /><stop
         id="stop110"
         offset="0.41503706"
         style="stop-opacity:1;stop-color:#68551f" /><stop
         id="stop112"
         offset="1"
         style="stop-opacity:1;stop-color:#af9358" /></linearGradient><linearGradient
       id="linearGradient128"
       spreadMethod="pad"
       gradientTransform="matrix(53.920898,0,0,-53.920898,286.86426,262.52539)"
       gradientUnits="userSpaceOnUse"
       y2="0"
       x2="1"
       y1="0"
       x1="0"><stop
         id="stop130"
         offset="0"
         style="stop-opacity:1;stop-color:#68551f" /><stop
         id="stop132"
         offset="1"
         style="stop-opacity:1;stop-color:#af9358" /></linearGradient><linearGradient
       id="linearGradient148"
       spreadMethod="pad"
       gradientTransform="matrix(64.703125,0,0,-64.703125,238.28809,270.70508)"
       gradientUnits="userSpaceOnUse"
       y2="0"
       x2="1"
       y1="0"
       x1="0"><stop
         id="stop150"
         offset="0"
         style="stop-opacity:1;stop-color:#af9358" /><stop
         id="stop152"
         offset="0.27957"
         style="stop-opacity:1;stop-color:#68551f" /><stop
         id="stop154"
         offset="1"
         style="stop-opacity:1;stop-color:#af9358" /></linearGradient><linearGradient
       id="linearGradient170"
       spreadMethod="pad"
       gradientTransform="matrix(49.173828,0,0,-49.173828,200.03223,208.92871)"
       gradientUnits="userSpaceOnUse"
       y2="0"
       x2="1"
       y1="0"
       x1="0"><stop
         id="stop172"
         offset="0"
         style="stop-opacity:1;stop-color:#68551f" /><stop
         id="stop174"
         offset="1"
         style="stop-opacity:1;stop-color:#af9358" /></linearGradient><clipPath
       id="clipPath182"
       clipPathUnits="userSpaceOnUse"><path
         id="path184"
         d="M 0,460 460,460 460,0 0,0 0,460 Z" /></clipPath></defs><g
     transform="matrix(1.25,0,0,-1.25,0,575)"
     id="g10"><path
       id="path12"
       style="fill:#000000;fill-opacity:1;fill-rule:nonzero;stroke:none"
       d="M 0,0 460,0 460,460 0,460 0,0 Z" /><g
       id="g14"><g
         clip-path="url(#clipPath18)"
         id="g16"><g
           id="g22"><g
             id="g24"><path
               id="path32"
               style="fill:url(#linearGradient26);stroke:none"
               d="m 285.784,197.623 -7.113,-19.768 2.857,0 1.96,5.684 7.449,0 1.987,-5.684 2.884,0 -7.111,19.768 -2.913,0 z m 0.644,-5.516 c 0.336,1.008 0.784,2.8 0.784,2.8 l 0,0 0.056,0 c 0,0 0.421,-1.792 0.756,-2.8 l 0,0 2.184,-6.272 -5.993,0 2.213,6.272 z" /></g></g></g></g><g
       id="g34"><g
         clip-path="url(#clipPath38)"
         id="g36"><g
           id="g42"><g
             id="g44"><path
               id="path52"
               style="fill:url(#linearGradient46);stroke:none"
               d="m 300.82,197.623 0,-19.768 2.772,0 0,7.868 4.227,0 4.173,-7.868 3.136,0 -4.201,7.672 c -0.363,0.644 -0.587,0.896 -0.587,0.896 l 0,0 0,0.056 c 2.156,0.7 3.556,2.828 3.556,5.348 l 0,0 c 0,2.605 -1.316,4.592 -3.332,5.349 l 0,0 c -0.756,0.279 -1.625,0.447 -3.696,0.447 l 0,0 -6.048,0 z m 2.772,-2.408 3.192,0 c 1.54,0 2.184,-0.168 2.716,-0.448 l 0,0 c 1.008,-0.561 1.567,-1.596 1.567,-3.052 l 0,0 c 0,-2.212 -1.344,-3.583 -3.499,-3.583 l 0,0 -3.976,0 0,7.083 z" /></g></g></g></g><g
       id="g54"><g
         clip-path="url(#clipPath58)"
         id="g56"><g
           id="g62"><g
             id="g64"><path
               id="path72"
               style="fill:url(#linearGradient66);stroke:none"
               d="m 318.319,197.623 0,-2.408 6.776,0 0,-17.36 2.772,0 0,17.36 6.776,0 0,2.408 -16.324,0 z" /></g></g></g></g><g
       id="g74"><g
         clip-path="url(#clipPath78)"
         id="g76"><g
           id="g82"><g
             id="g84"><path
               id="path92"
               style="fill:url(#linearGradient86);stroke:none"
               d="m 338.507,192.442 c 0,-6.075 9.576,-5.151 9.576,-9.435 l 0,0 c 0,-1.876 -1.569,-2.912 -3.416,-2.912 l 0,0 c -2.941,0 -5.04,2.128 -5.04,2.128 l 0,0 -1.568,-2.101 c 0,0 2.352,-2.603 6.551,-2.603 l 0,0 c 3.92,0 6.273,2.52 6.273,5.572 l 0,0 c 0,6.412 -9.576,5.319 -9.576,9.407 l 0,0 c 0,1.569 1.484,2.886 3.584,2.886 l 0,0 c 2.52,0 4.34,-1.709 4.34,-1.709 l 0,0 1.26,2.296 c 0,0 -1.933,1.988 -5.6,1.988 l 0,0 c -3.724,0 -6.384,-2.436 -6.384,-5.517" /></g></g></g></g><g
       id="g94"><g
         clip-path="url(#clipPath98)"
         id="g96"><g
           id="g102"><g
             id="g104"><path
               id="path114"
               style="fill:url(#linearGradient106);stroke:none"
               d="m 213.379,314.349 c -12.252,-11.33 -14.717,-31.682 -16.674,-47.243 l 0,0 c -2.275,-18.087 -2.013,-36.599 -5.453,-54.522 l 0,0 c -5.969,-31.106 -11.115,-69.143 -39.193,-88.735 l 0,0 c -7.168,-5.002 -16.194,-7.142 -24.328,-3.297 l 0,0 c -6.867,3.247 -11.249,10.246 -13.143,17.366 l 0,0 c -1.637,6.142 -2.217,13.154 -0.541,19.325 l 0,0 c 2.703,9.944 16.885,12.376 19.634,1.241 l 0,0 c 0.62,-2.504 4.477,-1.441 3.858,1.063 l 0,0 c -2.195,8.894 -10.789,13.187 -19.205,8.788 l 0,0 c -8.002,-4.182 -9.606,-13.064 -9.144,-21.37 l 0,0 c 0.939,-16.858 11.739,-34.528 30.791,-32.223 l 0,0 c 11.304,1.367 20.898,9.965 27.828,18.42 l 0,0 c 6.857,8.372 11.548,18.304 15.3,28.385 l 0,0 c 6.697,17.996 10.533,37.749 13.11,56.762 l 0,0 c 2.083,15.383 2.455,30.962 4.199,46.388 l 0,0 c 1.691,14.961 3.923,33.026 14.021,44.968 l 0,0 c 1.891,2.236 4.172,4.027 6.739,5.419 l 0,0 c 1.203,0.652 1.035,0.779 2.181,-0.428 l 0,0 c 0.95,-0.996 1.393,-2.453 1.754,-3.74 l 0,0 c 1.828,-6.493 0.217,-14.161 -1.074,-20.589 l 0,0 c -2.779,-13.843 -7.545,-27.369 -12.744,-40.472 l 0,0 c -0.952,-2.4 2.918,-3.431 3.857,-1.063 l 0,0 c 6.108,15.394 11.784,31.479 14.014,47.949 l 0,0 c 0.848,6.249 1.484,13.734 -1.938,19.379 l 0,0 c -1.43,2.359 -3.128,3.256 -4.91,3.256 l 0,0 c -3.04,0 -6.323,-2.608 -8.939,-5.027" /></g></g></g></g><g
       id="g116"><g
         id="g118"><g
           id="g124"><g
             id="g126"><path
               id="path134"
               style="fill:url(#linearGradient128);stroke:none"
               d="m 314.422,271.544 c -9.649,-8.875 -18.305,-18.754 -27.026,-28.519 l 0,0 c -1.713,-1.917 1.106,-4.756 2.829,-2.828 l 0,0 c 7.197,8.06 14.373,16.126 22.044,23.744 l 0,0 c 4.489,4.457 9.155,8.802 14.237,12.578 l 0,0 c 2.394,1.778 7.929,6.301 11.234,4.7 l 0,0 c 2.311,-1.122 4.34,2.328 2.02,3.453 l 0,0 c -1.179,0.572 -2.419,0.825 -3.69,0.826 l 0,0 c -7.864,0.001 -17.021,-9.698 -21.648,-13.954" /></g></g></g></g><g
       id="g136"><g
         id="g138"><g
           id="g144"><g
             id="g146"><path
               id="path156"
               style="fill:url(#linearGradient148);stroke:none"
               d="m 286.189,324.433 c -6.926,-18.244 -12.538,-37.047 -17.741,-55.892 l 0,0 c -1.995,-2.644 -4.093,-5.222 -6.303,-7.731 l 0,0 c -3.288,-3.729 -31.653,-32.683 -21.782,-37.3 l 0,0 c 2.323,-1.087 4.354,2.36 2.02,3.452 l 0,0 c -1.84,0.86 8.166,13.967 9.42,15.541 l 0,0 c 4.488,5.643 9.264,11.046 14.031,16.455 l 0,0 c -0.463,-1.712 -0.924,-3.425 -1.383,-5.136 l 0,0 c -1.989,-7.414 -3.944,-14.813 -5.747,-22.239 l 0,0 c -1.74,0.472 -3.179,1.33 -4.063,2.901 l 0,0 c -1.264,2.247 -4.721,0.231 -3.454,-2.019 l 0,0 c 1.46,-2.595 3.887,-3.848 6.655,-4.486 l 0,0 c -2.293,-9.736 -4.294,-19.529 -5.742,-29.473 l 0,0 c -0.272,-1.866 1.795,-3.481 3.343,-1.946 l 0,0 c 7.127,7.067 15.133,14.432 20.115,23.282 l 0,0 c 1.673,2.967 2.815,7.149 -0.462,9.468 l 0,0 c -3.008,2.129 -8.159,1.517 -12.655,1.752 l 0,0 c 2.735,11.659 5.891,23.248 9.234,34.755 l 0,0 c 9.773,12.419 16.556,27.138 22.497,41.682 l 0,0 c 3.361,8.227 6.478,16.75 8.104,25.511 l 0,0 c 0.589,3.183 1.884,9.88 -1.735,11.964 l 0,0 c -0.58,0.334 -1.156,0.488 -1.724,0.488 l 0,0 c -6.123,0.002 -11.426,-17.867 -12.628,-21.029 m -6.396,-31.632 c 4.648,15.132 8.949,31.543 16.815,45.405 l 0,0 c 0.401,0.708 1.181,2.186 1.891,2.891 l 0,0 c 0.033,0.033 0.065,0.063 0.098,0.092 l 0,0 c 0,0 0.028,-0.057 0.057,-0.129 l 0,0 c 0.385,-0.941 0.241,-2.253 0.213,-3.201 l 0,0 c -0.25,-7.971 -3.588,-16.211 -6.322,-23.583 l 0,0 c -4.598,-12.389 -10.077,-24.329 -16.996,-35.396 l 0,0 c 1.403,4.654 2.824,9.296 4.244,13.921 m -18.188,-65.364 c 2.905,-0.235 5.874,-0.177 8.305,-0.523 l 0,0 c 3.617,-0.515 3.871,-1.86 2.195,-5.053 l 0,0 c -3.581,-6.824 -9.513,-12.763 -15.197,-18.286 l 0,0 c 1.312,7.983 2.902,15.939 4.697,23.862" /></g></g></g></g><g
       id="g158"><g
         id="g160"><g
           id="g166"><g
             id="g168"><path
               id="path176"
               style="fill:url(#linearGradient170);stroke:none"
               d="m 240.842,223.307 c 2.494,-0.847 4.221,-1.259 4.298,-4.134 l 0,0 c 0.053,-1.909 -0.663,-3.74 -1.517,-5.408 l 0,0 c -2,-3.914 -5.484,-7.067 -8.971,-9.854 l 0,0 c -0.027,2.02 0.682,4.447 0.955,5.893 l 0,0 c 0.563,2.969 1.34,5.901 2.115,8.822 l 0,0 c 0.544,2.048 -1.863,3.192 -3.341,1.946 l 0,0 c -5.076,-4.276 -8.792,-9.941 -12.768,-15.333 l 0,0 c 0.768,3.28 1.258,6.608 1.052,9.838 l 0,0 c -0.118,1.818 -2.058,2.547 -3.415,1.414 l 0,0 c -4.939,-4.113 -8.723,-9.302 -12.507,-14.478 l 0,0 c 0.666,2.876 1.173,5.781 1.362,8.698 l 0,0 c 0.294,4.527 -2.721,6.866 -6.478,3.844 l 0,0 c -1.908,-1.534 0.556,-4.136 2.514,-3.034 l 0,0 c -0.007,-0.279 -0.03,-0.559 -0.035,-0.81 l 0,0 c -0.054,-1.976 -0.493,-3.95 -0.891,-5.877 l 0,0 c -0.81,-3.928 -1.91,-7.803 -3.087,-11.635 l 0,0 c -0.307,-1.01 0.157,-1.776 0.862,-2.17 l 0,0 c 0.707,-0.578 1.715,-0.698 2.483,0.213 l 0,0 c 5.193,6.155 9.418,13.235 15.007,19.046 l 0,0 c -0.566,-4.488 -2.088,-9.025 -3.33,-13.179 l 0,0 c -0.572,-1.916 1.961,-3.383 3.344,-1.946 l 0,0 c 4.895,5.091 8.617,11.375 13.144,16.845 l 0,0 c -1.181,-4.573 -1.901,-9.538 0.174,-12.502 l 0,0 c 0.806,-1.15 2.071,-1.232 3.141,-0.405 l 0,0 c 5.77,4.459 12.133,9.826 13.883,17.264 l 0,0 c 1.447,6.155 -1.448,8.937 -6.931,10.8 l 0,0 c -0.236,0.079 -0.458,0.116 -0.666,0.116 l 0,0 c -1.953,0 -2.594,-3.228 -0.397,-3.974" /></g></g></g></g><g
       id="g178"><g
         clip-path="url(#clipPath182)"
         id="g180"><path
           id="path186"
           style="fill:#ffffff;fill-opacity:1;fill-rule:nonzero;stroke:none"
           d="M 460,-460 0,-460 0,0 460,0 460,-460 Z" /><path
           id="path188"
           style="fill:#000000;fill-opacity:1;fill-rule:nonzero;stroke:none"
           d="m 920,0 -460,0 0,460 460,0 0,-460 z" /><path
           id="path190"
           style="fill:#ffffff;fill-opacity:1;fill-rule:nonzero;stroke:none"
           d="m 920,-460 -460,0 0,460 460,0 0,-460 z" /></g></g></g></svg>