<?xml version="1.0" encoding="utf-8"?>
<!-- Generator: Adobe Illustrator 21.1.0, SVG Export Plug-In . SVG Version: 6.00 Build 0)  -->
<svg version="1.1" id="Layer_1" xmlns="http://www.w3.org/2000/svg" xmlns:xlink="http://www.w3.org/1999/xlink" x="0px" y="0px"
	 viewBox="0 0 300 300" style="enable-background:new 0 0 300 300;" xml:space="preserve" width="200px" height="200px">
<g>
	<g>
		<path d="M211.9,196.5h-7.4l-2,5.7h-2.9l7.1-19.8h2.9l7.1,19.8h-2.9L211.9,196.5z M208.2,185.1c0,0-0.4,1.8-0.8,2.8l-2.2,6.3h6
			l-2.2-6.3C208.7,186.9,208.3,185.1,208.2,185.1L208.2,185.1z"/>
		<path d="M221.8,182.4h6c2.1,0,2.9,0.2,3.7,0.4c2,0.8,3.3,2.7,3.3,5.3c0,2.5-1.4,4.6-3.6,5.3v0.1c0,0,0.2,0.3,0.6,0.9l4.2,7.7H233
			l-4.2-7.9h-4.2v7.9h-2.8V182.4z M228.6,191.9c2.2,0,3.5-1.4,3.5-3.6c0-1.5-0.6-2.5-1.6-3.1c-0.5-0.3-1.2-0.4-2.7-0.4h-3.2v7.1
			H228.6z"/>
		<path d="M246.1,184.8h-6.8v-2.4h16.3v2.4h-6.8v17.4h-2.8V184.8z"/>
		<path d="M260.6,197.8c0,0,2.1,2.1,5,2.1c1.8,0,3.4-1,3.4-2.9c0-4.3-9.6-3.4-9.6-9.4c0-3.1,2.7-5.5,6.4-5.5c3.7,0,5.6,2,5.6,2
			l-1.3,2.3c0,0-1.8-1.7-4.3-1.7c-2.1,0-3.6,1.3-3.6,2.9c0,4.1,9.6,3,9.6,9.4c0,3.1-2.4,5.6-6.3,5.6c-4.2,0-6.6-2.6-6.6-2.6
			L260.6,197.8z"/>
	</g>
	<g>
		<path d="M136.2,131.2c6.1-15.4,11.8-31.5,14-47.9c0.8-6.2,1.5-13.7-1.9-19.4c-3.9-6.4-9.7-2.1-13.8,1.8
			c-12.3,11.3-14.7,31.7-16.7,47.2c-2.3,18.1-2,36.6-5.5,54.5c-6,31.1-11.1,69.1-39.2,88.7c-7.2,5-16.2,7.1-24.3,3.3
			c-6.9-3.2-11.2-10.2-13.1-17.4c-1.6-6.1-2.2-13.2-0.5-19.3c2.7-9.9,16.9-12.4,19.6-1.2c0.6,2.5,4.5,1.4,3.9-1.1
			c-2.2-8.9-10.8-13.2-19.2-8.8c-8,4.2-9.6,13.1-9.1,21.4c0.9,16.9,11.7,34.5,30.8,32.2c11.3-1.4,20.9-10,27.8-18.4
			c6.9-8.4,11.5-18.3,15.3-28.4c6.7-18,10.5-37.7,13.1-56.8c2.1-15.4,2.5-31,4.2-46.4c1.7-15,3.9-33,14-45c1.9-2.2,4.2-4,6.7-5.4
			c1.2-0.7,1-0.8,2.2,0.4c0.9,1,1.4,2.5,1.8,3.7c1.8,6.5,0.2,14.2-1.1,20.6c-2.8,13.8-7.5,27.4-12.7,40.5
			C131.3,132.5,135.2,133.6,136.2,131.2L136.2,131.2z"/>
	</g>
	<g>
		<path d="M211.2,139.8c7.2-8.1,14.4-16.1,22-23.7c4.5-4.5,9.2-8.8,14.2-12.6c2.4-1.8,7.9-6.3,11.2-4.7c2.3,1.1,4.3-2.3,2-3.5
			c-8.5-4.1-20,8.2-25.3,13.1c-9.6,8.9-18.3,18.8-27,28.5C206.7,138.9,209.5,141.7,211.2,139.8L211.2,139.8z"/>
	</g>
	<g>
		<path d="M163.4,153c-1.8-0.9,8.2-14,9.4-15.5c5.3-6.7,11-13,16.6-19.4c11.6-13.2,19.2-29.5,25.7-45.6c3.4-8.2,6.5-16.8,8.1-25.5
			c0.6-3.2,1.9-9.9-1.7-12c-6.8-3.9-13,17.1-14.4,20.5c-8.7,23-15.4,46.9-21.7,70.6c-4.9,18.3-9.6,36.5-12.4,55.3
			c-0.3,1.9,1.8,3.5,3.3,1.9c7.1-7.1,15.1-14.4,20.1-23.3c1.7-3,2.8-7.1-0.5-9.5c-5.2-3.7-17,0.9-20.5-5.2c-1.3-2.2-4.7-0.2-3.5,2
			c3.5,6.3,12.8,4.7,18.7,5.5c3.6,0.5,3.9,1.9,2.2,5.1c-4.5,8.6-12.7,15.8-19.5,22.5c1.1,0.6,2.2,1.3,3.3,1.9
			c4.7-32.3,14.3-64.2,23.8-95.4c4.6-15.1,8.9-31.5,16.8-45.4c0.4-0.7,1.2-2.2,1.9-2.9c0,0,0.1-0.1,0.1-0.1c0,0,0,0.1,0.1,0.1
			c0.4,0.9,0.2,2.3,0.2,3.2c-0.2,8-3.6,16.2-6.3,23.6c-7.2,19.5-16.6,37.9-30.4,53.5c-3.3,3.7-31.7,32.7-21.8,37.3
			C163.7,157.6,165.7,154.1,163.4,153L163.4,153z"/>
	</g>
	<path d="M162.9,152.8c-2.4-0.8-3.5,3-1.1,3.9c2.5,0.8,4.2,1.3,4.3,4.1c0.1,1.9-0.7,3.7-1.5,5.4c-2,3.9-5.5,7.1-9,9.9
		c0-2,0.7-4.4,1-5.9c0.6-3,1.3-5.9,2.1-8.8c0.5-2-1.9-3.2-3.3-1.9c-5.1,4.3-8.8,9.9-12.8,15.3c0.8-3.3,1.3-6.6,1.1-9.8
		c-0.1-1.8-2.1-2.5-3.4-1.4c-4.9,4.1-8.7,9.3-12.5,14.5c0.7-2.9,1.2-5.8,1.4-8.7c0.3-4.5-2.7-6.9-6.5-3.8c-1.9,1.5,0.6,4.1,2.5,3
		c0,0.3,0,0.6,0,0.8c-0.1,2-0.5,3.9-0.9,5.9c-0.8,3.9-1.9,7.8-3.1,11.6c-0.3,1,0.2,1.8,0.9,2.2c0.7,0.6,1.7,0.7,2.5-0.2
		c5.2-6.2,9.4-13.2,15-19c-0.6,4.5-2.1,9-3.3,13.2c-0.6,1.9,2,3.4,3.3,1.9c4.9-5.1,8.6-11.4,13.1-16.8c-1.2,4.6-1.9,9.5,0.2,12.5
		c0.8,1.1,2.1,1.2,3.1,0.4c5.8-4.5,12.1-9.8,13.9-17.3C171.3,157.5,168.4,154.7,162.9,152.8z"/>
</g>
</svg>
